<svg width="2298" height="1677" viewBox="0 0 2298 1677" fill="none" xmlns="http://www.w3.org/2000/svg">
<rect width="2298" height="1676.22" fill="#D685FF"/>
<path d="M365.416 1059.12C365.416 1070.86 362.529 1081.01 356.756 1089.57C350.982 1098.14 342.601 1104.75 331.612 1109.41C320.81 1114.07 307.866 1116.39 292.78 1116.39C285.516 1116.39 278.532 1115.93 271.827 1115C265.309 1114.25 259.069 1113.04 253.109 1111.36C247.336 1109.69 241.935 1107.64 236.906 1105.22V1071.69C245.287 1075.42 254.506 1078.86 264.564 1082.03C274.621 1085.01 284.864 1086.5 295.294 1086.5C303.303 1086.5 309.822 1085.48 314.85 1083.43C320.065 1081.19 323.883 1078.21 326.304 1074.49C328.726 1070.58 329.936 1066.11 329.936 1061.08C329.936 1055.49 328.353 1050.74 325.187 1046.83C322.021 1042.92 317.365 1039.29 311.218 1035.93C305.072 1032.58 297.436 1029.04 288.31 1025.32C282.164 1022.71 276.111 1019.82 270.151 1016.66C264.377 1013.31 259.162 1009.3 254.506 1004.65C249.85 999.989 246.125 994.495 243.331 988.162C240.538 981.83 239.141 974.38 239.141 965.813C239.141 954.452 241.841 944.674 247.243 936.479C252.83 928.284 260.559 922.045 270.43 917.761C280.488 913.477 292.128 911.335 305.352 911.335C315.968 911.335 325.932 912.453 335.244 914.688C344.557 916.923 353.776 920.089 362.902 924.186L351.448 952.962C343.253 949.423 335.337 946.629 327.701 944.581C320.065 942.532 312.243 941.507 304.234 941.507C297.902 941.507 292.501 942.532 288.031 944.581C283.561 946.443 280.208 949.144 277.973 952.682C275.738 956.221 274.621 960.318 274.621 964.975C274.621 970.376 276.018 974.939 278.811 978.664C281.605 982.389 285.889 985.927 291.662 989.28C297.622 992.446 305.258 996.078 314.571 1000.18C325.373 1004.83 334.499 1009.67 341.949 1014.7C349.399 1019.73 355.173 1025.78 359.27 1032.86C363.368 1039.94 365.416 1048.69 365.416 1059.12ZM490.799 941.507C481.673 941.507 473.571 943.184 466.494 946.536C459.416 949.889 453.363 954.731 448.335 961.063C443.492 967.396 439.767 975.032 437.16 983.972C434.739 992.912 433.528 1002.97 433.528 1014.14C433.528 1029.23 435.577 1042.17 439.674 1052.98C443.772 1063.59 450.011 1071.79 458.392 1077.56C466.959 1083.33 477.669 1086.22 490.52 1086.22C499.087 1086.22 507.282 1085.38 515.104 1083.71C523.113 1081.84 531.494 1079.42 540.248 1076.44V1106.89C532.053 1110.25 523.765 1112.67 515.384 1114.16C507.189 1115.65 497.69 1116.39 486.888 1116.39C466.401 1116.39 449.452 1112.2 436.042 1103.82C422.633 1095.25 412.668 1083.33 406.15 1068.06C399.631 1052.6 396.372 1034.54 396.372 1013.86C396.372 998.778 398.42 984.996 402.518 972.518C406.802 960.039 412.855 949.237 420.677 940.111C428.686 930.985 438.557 923.907 450.29 918.878C462.024 913.85 475.527 911.335 490.799 911.335C500.856 911.335 510.727 912.546 520.412 914.967C530.283 917.202 539.503 920.368 548.07 924.466L535.778 953.8C528.7 950.634 521.343 947.84 513.707 945.419C506.257 942.811 498.621 941.507 490.799 941.507ZM709.201 1113.6L691.042 1060.8H615.891L598.012 1113.6H560.017L633.212 913.291H674L747.195 1113.6H709.201ZM664.502 978.664C663.757 976.056 662.639 972.518 661.149 968.048C659.659 963.578 658.169 959.015 656.679 954.358C655.376 949.516 654.351 945.512 653.606 942.346C652.675 946.071 651.465 950.354 649.975 955.197C648.671 960.039 647.367 964.602 646.063 968.886C644.946 973.169 644.015 976.429 643.27 978.664L625.669 1030.07H681.823L664.502 978.664ZM776.222 1113.6V914.129H811.981V1083.43H895.233V1113.6H776.222ZM1000.22 1113.6H916.411V1093.21L940.437 1084.27V943.742L916.411 934.523V914.129H1000.22V934.523L976.196 943.742V1084.27L1000.22 1093.21V1113.6ZM1208.39 1113.6H1163.97L1069.54 957.152H1068.42C1068.61 961.25 1068.79 965.626 1068.98 970.283C1069.35 974.753 1069.63 979.409 1069.82 984.251C1070 988.907 1070.19 993.657 1070.38 998.499C1070.56 1003.34 1070.75 1008.18 1070.94 1013.03V1113.6H1038.81V914.129H1082.95L1177.1 1069.46H1177.93C1177.75 1065.73 1177.56 1061.73 1177.38 1057.45C1177.19 1052.98 1177 1048.41 1176.82 1043.76C1176.82 1039.1 1176.72 1034.35 1176.54 1029.51C1176.35 1024.67 1176.17 1020.01 1175.98 1015.54V914.129H1208.39V1113.6ZM1342.75 1004.09H1418.18V1105.5C1407.57 1109.04 1396.67 1111.74 1385.5 1113.6C1374.32 1115.46 1361.66 1116.39 1347.5 1116.39C1327.39 1116.39 1310.35 1112.39 1296.38 1104.38C1282.41 1096.37 1271.79 1084.73 1264.53 1069.46C1257.27 1054.19 1253.64 1035.56 1253.64 1013.59C1253.64 992.725 1257.73 974.659 1265.93 959.387C1274.12 944.115 1285.86 932.288 1301.13 923.907C1316.59 915.526 1335.4 911.335 1357.56 911.335C1368.36 911.335 1378.79 912.453 1388.85 914.688C1399.09 916.737 1408.41 919.623 1416.79 923.348L1404.5 952.682C1398.16 949.516 1390.81 946.909 1382.42 944.86C1374.23 942.625 1365.66 941.507 1356.72 941.507C1343.13 941.507 1331.39 944.487 1321.52 950.447C1311.65 956.407 1304.01 964.881 1298.61 975.87C1293.4 986.672 1290.79 999.43 1290.79 1014.14C1290.79 1028.3 1292.84 1040.87 1296.94 1051.86C1301.03 1062.66 1307.55 1071.14 1316.49 1077.28C1325.43 1083.24 1337.07 1086.22 1351.41 1086.22C1356.26 1086.22 1360.45 1086.04 1363.99 1085.66C1367.71 1085.29 1371.06 1084.82 1374.04 1084.27C1377.21 1083.71 1380.19 1083.15 1382.98 1082.59V1034.54H1342.75V1004.09ZM1579.2 1113.6H1544V914.129H1657.14V944.022H1579.2V1002.69H1651.84V1032.58H1579.2V1113.6ZM1875.36 1013.59C1875.36 1029.04 1873.4 1043.11 1869.49 1055.77C1865.76 1068.25 1859.99 1079.05 1852.17 1088.18C1844.53 1097.3 1834.75 1104.29 1822.83 1109.13C1811.1 1113.97 1797.32 1116.39 1781.49 1116.39C1765.47 1116.39 1751.5 1113.97 1739.58 1109.13C1727.85 1104.1 1718.16 1097.12 1710.53 1088.18C1702.89 1079.05 1697.12 1068.16 1693.21 1055.49C1689.48 1042.83 1687.62 1028.76 1687.62 1013.31C1687.62 992.632 1690.97 974.659 1697.68 959.387C1704.57 944.115 1714.9 932.288 1728.69 923.907C1742.66 915.34 1760.35 911.056 1781.77 911.056C1802.81 911.056 1820.23 915.34 1834.01 923.907C1847.79 932.288 1858.13 944.208 1865.02 959.667C1871.91 974.939 1875.36 992.912 1875.36 1013.59ZM1725.33 1013.59C1725.33 1028.67 1727.29 1041.62 1731.2 1052.42C1735.3 1063.22 1741.44 1071.51 1749.64 1077.28C1758.02 1083.06 1768.64 1085.94 1781.49 1085.94C1794.71 1085.94 1805.42 1083.06 1813.62 1077.28C1821.81 1071.51 1827.86 1063.22 1831.77 1052.42C1835.69 1041.62 1837.64 1028.67 1837.64 1013.59C1837.64 991.049 1833.26 973.356 1824.51 960.505C1815.76 947.654 1801.51 941.228 1781.77 941.228C1768.73 941.228 1758.02 944.115 1749.64 949.889C1741.44 955.662 1735.3 963.95 1731.2 974.753C1727.29 985.555 1725.33 998.499 1725.33 1013.59ZM1977.34 914.129C1994.84 914.129 2009.28 916.271 2020.64 920.555C2032 924.838 2040.48 931.357 2046.06 940.111C2051.65 948.678 2054.44 959.573 2054.44 972.797C2054.44 982.482 2052.58 990.77 2048.86 997.661C2045.32 1004.55 2040.66 1010.33 2034.89 1014.98C2029.11 1019.45 2022.87 1023.08 2016.17 1025.88L2073.44 1113.6H2033.21L1985.44 1034.82H1956.38V1113.6H1920.63V914.129H1977.34ZM1975.1 944.022H1956.38V1005.48H1976.22C1986.09 1005.48 1994.1 1004.27 2000.25 1001.85C2006.39 999.43 2010.86 995.892 2013.66 991.235C2016.64 986.579 2018.13 980.806 2018.13 973.914C2018.13 966.651 2016.54 960.877 2013.38 956.593C2010.21 952.124 2005.46 948.957 1999.13 947.095C1992.98 945.046 1984.97 944.022 1975.1 944.022ZM317.085 1449.6H233.274V1429.21L257.3 1420.27V1279.74L233.274 1270.52V1250.13H317.085V1270.52L293.059 1279.74V1420.27L317.085 1429.21V1449.6ZM441.438 1449.6L386.681 1286.17H385.564C385.75 1289.89 386.029 1295.2 386.402 1302.09C386.774 1308.8 387.054 1316.15 387.24 1324.16C387.612 1331.98 387.799 1339.34 387.799 1346.23V1449.6H355.671V1250.13H405.399L457.921 1406.86H459.038L513.795 1250.13H563.523V1449.6H529.439V1344.56C529.439 1338.22 529.533 1331.33 529.719 1323.88C530.091 1316.25 530.371 1309.08 530.557 1302.37C530.929 1295.48 531.209 1290.17 531.395 1286.45H530.278L473.286 1449.6H441.438ZM677.425 1250.13C703.313 1250.13 722.124 1255.53 733.858 1266.33C745.778 1277.13 751.737 1292.03 751.737 1311.03C751.737 1319.6 750.434 1327.79 747.826 1335.62C745.219 1343.25 740.842 1350.14 734.696 1356.29C728.55 1362.44 720.448 1367.28 710.391 1370.82C700.52 1374.36 688.227 1376.13 673.514 1376.13H653.678V1449.6H617.919V1250.13H677.425ZM675.19 1279.74H653.678V1346.51H669.882C679.567 1346.51 687.762 1345.39 694.467 1343.16C701.358 1340.74 706.573 1337.01 710.111 1331.98C713.65 1326.96 715.419 1320.44 715.419 1312.43C715.419 1301.44 712.16 1293.25 705.641 1287.84C699.123 1282.44 688.972 1279.74 675.19 1279.74ZM902.971 1449.6L884.812 1396.8H809.661L791.781 1449.6H753.787L826.982 1249.29H867.77L940.965 1449.6H902.971ZM858.271 1314.66C857.526 1312.06 856.409 1308.52 854.919 1304.05C853.429 1299.58 851.939 1295.01 850.449 1290.36C849.145 1285.52 848.121 1281.51 847.376 1278.35C846.445 1282.07 845.234 1286.35 843.744 1291.2C842.44 1296.04 841.137 1300.6 839.833 1304.89C838.715 1309.17 837.784 1312.43 837.039 1314.66L819.439 1366.07H875.592L858.271 1314.66ZM1049.46 1277.51C1040.34 1277.51 1032.24 1279.18 1025.16 1282.54C1018.08 1285.89 1012.03 1290.73 1007 1297.06C1002.16 1303.4 998.432 1311.03 995.824 1319.97C993.403 1328.91 992.192 1338.97 992.192 1350.14C992.192 1365.23 994.241 1378.17 998.339 1388.98C1002.44 1399.59 1008.68 1407.79 1017.06 1413.56C1025.62 1419.33 1036.33 1422.22 1049.18 1422.22C1057.75 1422.22 1065.95 1421.38 1073.77 1419.71C1081.78 1417.84 1090.16 1415.42 1098.91 1412.44V1442.89C1090.72 1446.25 1082.43 1448.67 1074.05 1450.16C1065.85 1451.65 1056.35 1452.39 1045.55 1452.39C1025.06 1452.39 1008.12 1448.2 994.707 1439.82C981.297 1431.25 971.333 1419.33 964.814 1404.06C958.295 1388.6 955.036 1370.54 955.036 1349.86C955.036 1334.78 957.085 1321 961.182 1308.52C965.466 1296.04 971.519 1285.24 979.341 1276.11C987.35 1266.98 997.221 1259.91 1008.95 1254.88C1020.69 1249.85 1034.19 1247.34 1049.46 1247.34C1059.52 1247.34 1069.39 1248.55 1079.08 1250.97C1088.95 1253.2 1098.17 1256.37 1106.73 1260.47L1094.44 1289.8C1087.36 1286.63 1080.01 1283.84 1072.37 1281.42C1064.92 1278.81 1057.29 1277.51 1049.46 1277.51ZM1216.18 1449.6H1180.42V1280.3H1123.15V1250.13H1273.45V1280.3H1216.18V1449.6Z" fill="#033529"/>
</svg>
