<svg width="2397" height="972" viewBox="0 0 2397 972" fill="none" xmlns="http://www.w3.org/2000/svg">
<rect width="971.646" height="971.646" fill="white"/>
<path d="M809.712 602.558C787.04 619.562 759.51 628.468 732.79 636.565C702.021 646.282 670.442 653.569 638.864 660.047C622.67 663.286 605.666 667.334 589.472 671.383C576.517 674.622 564.371 677.86 551.416 682.719C540.08 686.767 529.554 692.435 521.457 700.532C510.93 711.058 500.404 727.252 500.404 749.924V847.089H586.233V799.316C586.233 791.219 587.852 782.312 592.711 775.835C598.379 767.738 607.285 763.689 616.192 760.45C626.718 757.212 636.435 754.782 646.961 752.353C653.439 750.734 659.916 749.115 666.394 747.495C682.588 742.637 698.782 736.969 714.976 731.301C753.032 718.346 788.659 692.435 811.331 657.618C828.335 632.517 838.861 602.558 841.29 571.789C831.574 583.125 822.424 593.327 811.088 601.424L809.712 602.558Z" fill="#033529"/>
<path d="M416.999 402.409C412.141 396.741 407.282 391.073 404.044 384.596C400.805 377.308 399.995 369.211 399.995 361.114V227.513C399.995 220.226 393.517 213.748 386.23 213.748C378.943 213.748 372.465 219.416 372.465 227.513V478.522C372.465 478.522 370.036 502.003 391.898 518.197C402.424 525.484 413.76 531.152 425.096 536.82C439.671 543.298 455.865 549.776 471.249 554.634V489.048C471.249 480.951 471.249 472.854 468.82 465.566C465.581 455.85 459.104 447.753 452.626 440.465C446.148 433.178 438.861 425.891 432.383 418.603L416.999 402.409Z" fill="#033529"/>
<path d="M516.598 407.28C522.266 399.992 528.744 392.705 531.173 382.988C534.412 374.082 533.602 364.365 531.173 355.459C527.124 340.884 519.837 327.119 512.55 313.354C510.121 307.686 507.691 302.828 505.262 297.969C502.833 293.921 502.023 290.682 499.594 285.824V143.316C499.594 136.028 493.926 129.551 485.829 129.551C477.732 129.551 472.064 135.219 472.064 143.316V285.014C469.635 289.872 468.016 293.111 466.396 297.16C463.967 302.018 461.538 306.066 459.109 310.925C451.822 325.499 444.534 339.264 440.486 354.649C438.057 363.556 438.057 373.272 440.486 382.179C443.725 391.086 449.393 399.183 455.061 406.47L485.991 439.668L516.598 407.28Z" fill="#033529"/>
<path d="M686.629 625.102C699.584 622.673 711.73 619.434 724.685 615.386C753.025 606.479 780.555 593.524 804.036 574.091C825.089 557.087 842.902 535.225 855.857 510.124C863.954 494.74 869.622 478.546 874.48 462.352C862.335 473.687 851.728 482.351 837.153 489.963L833.995 491.501C805.656 505.266 774.077 512.553 743.308 518.221C725.495 521.46 706.872 524.699 688.248 527.128C682.58 528.019 677.722 528.747 672.054 529.557C645.334 532.796 617.804 536.844 591.893 543.322C574.89 547.371 558.695 553.039 543.311 561.945C532.785 567.613 522.259 574.091 514.971 583.807C508.494 591.904 503.636 601.621 502.016 612.147C499.587 625.102 500.64 637.896 500.397 651.823C500.397 663.158 500.397 677.733 500.397 689.069C508.494 680.972 517.4 672.875 528.736 667.207C546.55 658.3 565.983 652.632 584.606 647.774C605.658 642.106 649.382 633.199 649.382 633.199L686.629 625.102Z" fill="#033529"/>
<path d="M322.262 633.199C322.262 633.199 365.986 642.106 387.039 647.774C405.662 652.632 425.095 658.3 442.908 667.207C454.244 672.875 463.151 680.972 471.248 689.069C471.248 677.733 471.248 663.158 471.248 651.823C471.005 637.896 472.058 625.102 469.628 612.147C468.009 601.621 463.151 591.904 456.673 583.807C449.386 574.091 438.86 567.613 428.333 561.945C412.949 553.039 396.755 547.371 379.751 543.322C353.841 536.844 326.311 532.796 299.59 529.557C293.922 528.747 289.064 528.019 283.396 527.128C264.773 524.699 246.15 521.46 228.336 518.221C197.568 512.553 165.989 505.266 137.649 491.501L134.491 489.963C119.917 482.351 109.31 473.687 97.1641 462.352C102.022 478.546 107.69 494.74 115.787 510.124C128.743 535.225 146.556 557.087 167.608 574.091C191.09 593.524 218.62 606.479 246.96 615.386C259.915 619.434 272.06 622.673 285.016 625.102L322.262 633.199Z" fill="#033529"/>
<path d="M539.27 418.603C532.792 425.891 525.505 433.178 519.028 440.465C512.55 447.753 506.072 455.85 502.833 465.566C500.404 472.854 500.404 480.951 500.404 489.048V554.634C515.789 549.776 531.983 543.298 546.557 536.82C557.893 531.152 569.229 525.484 579.755 518.197C601.617 502.003 599.188 478.522 599.188 478.522V404.029V227.513C599.188 219.416 592.711 213.748 585.423 213.748C578.136 213.748 571.658 220.226 571.658 227.513V361.114C571.658 369.211 570.849 377.308 567.61 384.596C564.371 391.073 559.513 396.741 554.655 402.409L539.27 418.603Z" fill="#033529"/>
<path d="M160.561 601.424C149.226 593.327 140.076 583.125 130.359 571.789C132.788 602.558 143.315 632.517 160.318 657.618C182.99 692.435 218.617 718.346 256.673 731.301C272.867 736.969 289.062 742.637 305.256 747.495C311.733 749.115 318.211 750.734 324.689 752.353C335.215 754.782 344.931 757.212 355.457 760.45C364.364 763.689 373.271 767.738 378.939 775.835C383.797 782.312 385.416 791.219 385.416 799.316V820.369C385.416 830.085 385.416 838.182 385.416 847.089H430.76C443.715 847.089 458.29 847.089 471.245 847.089V763.689C471.245 756.402 471.245 758.021 471.245 749.924C471.245 727.252 460.719 711.058 450.193 700.532C442.096 692.435 431.57 686.767 420.234 682.719C407.279 677.86 395.133 674.622 382.178 671.383C365.984 667.334 348.98 663.286 332.786 660.047C301.207 653.569 269.629 646.282 238.86 636.565C212.14 628.468 184.61 619.562 161.938 602.558L160.561 601.424Z" fill="#033529"/>
<rect width="1360.3" height="971.646" transform="translate(1036.42)" fill="#D685FF"/>
<path d="M1229.78 357.071C1225.57 357.071 1221.79 357.934 1218.44 359.662C1215.2 361.281 1212.45 363.71 1210.18 366.949C1207.92 370.188 1206.19 374.075 1205 378.609C1203.81 383.143 1203.22 388.271 1203.22 393.993C1203.22 401.767 1204.19 408.352 1206.14 413.75C1208.08 419.148 1211.05 423.251 1215.04 426.058C1219.15 428.865 1224.33 430.268 1230.59 430.268C1235.45 430.268 1240.25 429.674 1245 428.487C1249.75 427.191 1254.77 425.572 1260.06 423.629V446.948C1254.99 449.107 1249.86 450.673 1244.68 451.644C1239.5 452.616 1233.88 453.102 1227.84 453.102C1215.64 453.102 1205.6 450.673 1197.72 445.814C1189.94 440.848 1184.17 433.939 1180.39 425.086C1176.72 416.125 1174.88 405.707 1174.88 393.831C1174.88 385.087 1176.07 377.098 1178.44 369.864C1180.82 362.523 1184.33 356.207 1188.97 350.917C1193.72 345.627 1199.5 341.524 1206.3 338.61C1213.1 335.695 1220.98 334.237 1229.94 334.237C1235.56 334.237 1241.33 334.939 1247.27 336.342C1253.31 337.746 1259.09 339.743 1264.6 342.334L1256.01 364.358C1251.7 362.307 1247.38 360.58 1243.06 359.176C1238.74 357.773 1234.31 357.071 1229.78 357.071ZM1325.49 385.249H1373.27V446.3C1367.22 448.352 1360.64 450.025 1353.51 451.32C1346.49 452.508 1338.83 453.102 1330.51 453.102C1319.18 453.102 1309.41 450.889 1301.2 446.462C1293 442.036 1286.68 435.396 1282.26 426.543C1277.94 417.691 1275.78 406.679 1275.78 393.508C1275.78 381.416 1278.1 370.944 1282.74 362.091C1287.38 353.238 1294.19 346.383 1303.15 341.524C1312.21 336.666 1323.28 334.237 1336.34 334.237C1342.93 334.237 1349.3 334.885 1355.45 336.18C1361.71 337.476 1367.22 339.203 1371.97 341.363L1363.06 363.225C1359.29 361.281 1355.13 359.77 1350.59 358.69C1346.06 357.611 1341.31 357.071 1336.34 357.071C1329.33 357.071 1323.39 358.69 1318.53 361.929C1313.78 365.06 1310.22 369.432 1307.84 375.046C1305.47 380.552 1304.28 386.868 1304.28 393.993C1304.28 401.443 1305.31 407.866 1307.36 413.264C1309.41 418.662 1312.48 422.873 1316.59 425.896C1320.8 428.811 1326.14 430.268 1332.62 430.268C1334.45 430.268 1336.24 430.214 1337.96 430.106C1339.69 429.89 1341.31 429.674 1342.82 429.458C1344.33 429.243 1345.68 429.027 1346.87 428.811V407.434H1325.49V385.249ZM1446.86 451.482H1390.67V435.774L1404.92 429.782V357.557L1390.67 351.565V335.857H1446.86V351.565L1432.61 357.557V429.782L1446.86 435.774V451.482ZM1536.59 451.482L1529.46 426.705H1489.46L1482.34 451.482H1452.22L1491.57 335.371H1526.87L1566.71 451.482H1536.59ZM1516.51 380.552C1515.97 378.609 1515.21 376.018 1514.24 372.779C1513.38 369.432 1512.46 366.032 1511.49 362.577C1510.62 359.122 1509.92 356.207 1509.38 353.832C1508.95 356.207 1508.25 359.176 1507.28 362.739C1506.41 366.193 1505.55 369.594 1504.69 372.941C1503.82 376.18 1503.12 378.717 1502.58 380.552L1495.78 403.71H1523.31L1516.51 380.552ZM1615.95 335.857C1626.42 335.857 1635.05 337.152 1641.86 339.743C1648.77 342.226 1653.95 346.059 1657.4 351.241C1660.86 356.315 1662.58 362.685 1662.58 370.35C1662.58 375.316 1661.67 379.743 1659.83 383.629C1658 387.516 1655.51 390.916 1652.38 393.831C1649.36 396.746 1645.85 399.175 1641.86 401.119L1675.7 451.482H1644.77L1618.7 408.082H1607.85V451.482H1580.32V335.857H1615.95ZM1614.81 357.557H1607.85V386.544H1614.81C1619.24 386.544 1622.91 386.058 1625.82 385.087C1628.74 384.007 1630.9 382.334 1632.3 380.066C1633.81 377.691 1634.57 374.776 1634.57 371.322C1634.57 368.191 1633.87 365.654 1632.46 363.71C1631.06 361.659 1628.9 360.148 1625.99 359.176C1623.07 358.096 1619.35 357.557 1614.81 357.557ZM1248.24 613.904C1248.24 620.705 1246.57 626.589 1243.22 631.555C1239.87 636.522 1235.02 640.354 1228.65 643.053C1222.38 645.752 1214.88 647.102 1206.14 647.102C1201.93 647.102 1197.88 646.832 1193.99 646.292C1190.21 645.86 1186.6 645.159 1183.14 644.187C1179.79 643.215 1176.66 642.028 1173.75 640.624V621.191C1178.61 623.35 1183.95 625.348 1189.78 627.183C1195.61 628.91 1201.55 629.774 1207.59 629.774C1212.24 629.774 1216.01 629.18 1218.93 627.993C1221.95 626.697 1224.17 624.97 1225.57 622.811C1226.97 620.544 1227.67 617.952 1227.67 615.038C1227.67 611.799 1226.76 609.046 1224.92 606.779C1223.09 604.511 1220.39 602.406 1216.82 600.463C1213.26 598.52 1208.84 596.468 1203.54 594.309C1199.98 592.798 1196.47 591.124 1193.02 589.289C1189.67 587.346 1186.65 585.024 1183.95 582.325C1181.25 579.626 1179.09 576.442 1177.47 572.771C1175.85 569.1 1175.04 564.782 1175.04 559.816C1175.04 553.23 1176.61 547.562 1179.74 542.812C1182.98 538.062 1187.46 534.445 1193.18 531.962C1199.01 529.479 1205.76 528.237 1213.42 528.237C1219.58 528.237 1225.35 528.885 1230.75 530.18C1236.15 531.476 1241.49 533.311 1246.78 535.686L1240.14 552.366C1235.39 550.315 1230.81 548.696 1226.38 547.508C1221.95 546.321 1217.42 545.727 1212.78 545.727C1209.1 545.727 1205.97 546.321 1203.38 547.508C1200.79 548.588 1198.85 550.153 1197.55 552.204C1196.26 554.256 1195.61 556.631 1195.61 559.33C1195.61 562.461 1196.42 565.106 1198.04 567.265C1199.66 569.424 1202.14 571.475 1205.49 573.419C1208.94 575.254 1213.37 577.359 1218.77 579.734C1225.03 582.433 1230.32 585.24 1234.64 588.155C1238.96 591.07 1242.3 594.579 1244.68 598.681C1247.05 602.784 1248.24 607.858 1248.24 613.904ZM1319.3 545.727C1314.01 545.727 1309.31 546.698 1305.21 548.642C1301.11 550.585 1297.6 553.392 1294.69 557.063C1291.88 560.733 1289.72 565.16 1288.21 570.342C1286.8 575.524 1286.1 581.354 1286.1 587.831C1286.1 596.576 1287.29 604.079 1289.67 610.341C1292.04 616.495 1295.66 621.245 1300.52 624.592C1305.48 627.939 1311.69 629.612 1319.14 629.612C1324.11 629.612 1328.86 629.126 1333.39 628.155C1338.03 627.075 1342.89 625.672 1347.96 623.944V641.596C1343.21 643.539 1338.41 644.943 1333.55 645.806C1328.8 646.67 1323.3 647.102 1317.03 647.102C1305.16 647.102 1295.33 644.673 1287.56 639.814C1279.79 634.848 1274.01 627.939 1270.23 619.086C1266.45 610.125 1264.57 599.653 1264.57 587.669C1264.57 578.925 1265.75 570.936 1268.13 563.702C1270.61 556.469 1274.12 550.207 1278.65 544.917C1283.3 539.627 1289.02 535.524 1295.82 532.61C1302.62 529.695 1310.45 528.237 1319.3 528.237C1325.13 528.237 1330.85 528.939 1336.47 530.342C1342.19 531.638 1347.53 533.473 1352.5 535.848L1345.37 552.852C1341.27 551.017 1337.01 549.397 1332.58 547.994C1328.26 546.482 1323.84 545.727 1319.3 545.727ZM1444.28 645.482L1433.76 614.876H1390.19L1379.83 645.482H1357.81L1400.23 529.371H1423.88L1466.31 645.482H1444.28ZM1418.37 567.265C1417.94 565.753 1417.29 563.702 1416.43 561.111C1415.56 558.52 1414.7 555.875 1413.84 553.176C1413.08 550.369 1412.49 548.048 1412.06 546.213C1411.52 548.372 1410.81 550.855 1409.95 553.662C1409.19 556.469 1408.44 559.114 1407.68 561.597C1407.04 564.08 1406.5 565.969 1406.06 567.265L1395.86 597.062H1428.41L1418.37 567.265ZM1481.51 645.482V529.857H1502.24V627.993H1550.5V645.482H1481.51ZM1609.74 645.482H1561.16V633.661L1575.08 628.479V547.022L1561.16 541.678V529.857H1609.74V541.678L1595.81 547.022V628.479L1609.74 633.661V645.482ZM1728.78 645.482H1703.03L1648.3 554.795H1647.65C1647.76 557.171 1647.87 559.708 1647.97 562.407C1648.19 564.998 1648.35 567.697 1648.46 570.504C1648.57 573.203 1648.68 575.956 1648.78 578.763C1648.89 581.57 1649 584.377 1649.11 587.184V645.482H1630.48V529.857H1656.07L1710.65 619.896H1711.13C1711.02 617.737 1710.92 615.415 1710.81 612.932C1710.7 610.341 1710.59 607.696 1710.48 604.997C1710.48 602.298 1710.43 599.545 1710.32 596.738C1710.21 593.931 1710.11 591.232 1710 588.641V529.857H1728.78V645.482ZM1805.05 582.002H1848.78V640.786C1842.62 642.837 1836.31 644.403 1829.83 645.482C1823.35 646.562 1816.01 647.102 1807.81 647.102C1796.15 647.102 1786.27 644.781 1778.17 640.138C1770.07 635.496 1763.92 628.749 1759.71 619.896C1755.5 611.043 1753.39 600.247 1753.39 587.508C1753.39 575.416 1755.77 564.944 1760.52 556.091C1765.27 547.238 1772.07 540.383 1780.92 535.524C1789.88 530.666 1800.79 528.237 1813.64 528.237C1819.9 528.237 1825.94 528.885 1831.77 530.18C1837.71 531.368 1843.11 533.041 1847.97 535.201L1840.84 552.204C1837.17 550.369 1832.91 548.858 1828.05 547.67C1823.3 546.374 1818.33 545.727 1813.15 545.727C1805.27 545.727 1798.47 547.454 1792.74 550.909C1787.02 554.364 1782.6 559.276 1779.47 565.645C1776.44 571.907 1774.93 579.303 1774.93 587.831C1774.93 596.036 1776.12 603.324 1778.49 609.693C1780.87 615.955 1784.65 620.867 1789.83 624.43C1795.01 627.885 1801.76 629.612 1810.07 629.612C1812.88 629.612 1815.31 629.504 1817.36 629.288C1819.52 629.072 1821.46 628.802 1823.19 628.479C1825.02 628.155 1826.75 627.831 1828.37 627.507V599.653H1805.05V582.002ZM1938.87 645.482H1918.47V529.857H1984.05V547.184H1938.87V581.192H1980.98V598.52H1938.87V645.482ZM2108.92 587.508C2108.92 596.468 2107.79 604.619 2105.52 611.961C2103.36 619.194 2100.02 625.456 2095.48 630.746C2091.06 636.036 2085.39 640.084 2078.48 642.891C2071.68 645.698 2063.69 647.102 2054.51 647.102C2045.23 647.102 2037.13 645.698 2030.22 642.891C2023.42 639.976 2017.81 635.928 2013.38 630.746C2008.95 625.456 2005.61 619.14 2003.34 611.799C2001.18 604.457 2000.1 596.306 2000.1 587.346C2000.1 575.362 2002.04 564.944 2005.93 556.091C2009.92 547.238 2015.92 540.383 2023.91 535.524C2032 530.558 2042.26 528.075 2054.67 528.075C2066.87 528.075 2076.97 530.558 2084.96 535.524C2092.95 540.383 2098.94 547.292 2102.93 556.253C2106.93 565.106 2108.92 575.524 2108.92 587.508ZM2021.96 587.508C2021.96 596.252 2023.1 603.756 2025.36 610.017C2027.74 616.279 2031.3 621.083 2036.05 624.43C2040.91 627.777 2047.06 629.45 2054.51 629.45C2062.18 629.45 2068.39 627.777 2073.14 624.43C2077.89 621.083 2081.39 616.279 2083.66 610.017C2085.93 603.756 2087.06 596.252 2087.06 587.508C2087.06 574.444 2084.53 564.188 2079.45 556.739C2074.38 549.289 2066.12 545.565 2054.67 545.565C2047.12 545.565 2040.91 547.238 2036.05 550.585C2031.3 553.932 2027.74 558.736 2025.36 564.998C2023.1 571.259 2021.96 578.763 2021.96 587.508ZM2166.42 529.857C2176.57 529.857 2184.94 531.098 2191.52 533.581C2198.11 536.064 2203.02 539.843 2206.26 544.917C2209.5 549.883 2211.12 556.199 2211.12 563.864C2211.12 569.478 2210.04 574.282 2207.88 578.277C2205.83 582.271 2203.13 585.618 2199.78 588.317C2196.43 590.908 2192.82 593.014 2188.93 594.633L2222.13 645.482H2198.81L2171.12 599.815H2154.27V645.482H2133.55V529.857H2166.42ZM2165.12 547.184H2154.27V582.811H2165.77C2171.49 582.811 2176.14 582.109 2179.7 580.706C2183.26 579.303 2185.85 577.251 2187.47 574.552C2189.2 571.853 2190.06 568.506 2190.06 564.512C2190.06 560.301 2189.15 556.955 2187.31 554.472C2185.47 551.88 2182.72 550.045 2179.05 548.966C2175.49 547.778 2170.85 547.184 2165.12 547.184ZM1220.22 840.482H1171.64V828.661L1185.57 823.479V742.022L1171.64 736.678V724.857H1220.22V736.678L1206.3 742.022V823.479L1220.22 828.661V840.482ZM1290.69 840.482L1258.95 745.747H1258.3C1258.41 747.906 1258.57 750.983 1258.79 754.978C1259 758.864 1259.16 763.129 1259.27 767.771C1259.49 772.305 1259.6 776.57 1259.6 780.564V840.482H1240.97V724.857H1269.8L1300.24 815.705H1300.89L1332.63 724.857H1361.46V840.482H1341.7V779.593C1341.7 775.922 1341.75 771.927 1341.86 767.609C1342.08 763.183 1342.24 759.026 1342.35 755.139C1342.56 751.145 1342.73 748.068 1342.83 745.909H1342.19L1309.15 840.482H1290.69ZM1425.86 724.857C1440.87 724.857 1451.77 727.987 1458.57 734.249C1465.48 740.511 1468.94 749.148 1468.94 760.16C1468.94 765.126 1468.18 769.876 1466.67 774.41C1465.16 778.837 1462.62 782.831 1459.06 786.394C1455.5 789.957 1450.8 792.764 1444.97 794.815C1439.25 796.866 1432.12 797.892 1423.59 797.892H1412.1V840.482H1391.37V724.857H1425.86ZM1424.57 742.022H1412.1V780.726H1421.49C1427.1 780.726 1431.85 780.078 1435.74 778.783C1439.74 777.379 1442.76 775.22 1444.81 772.305C1446.86 769.39 1447.89 765.612 1447.89 760.969C1447.89 754.6 1446 749.849 1442.22 746.719C1438.44 743.588 1432.56 742.022 1424.57 742.022ZM1554.98 840.482L1544.46 809.876H1500.9L1490.53 840.482H1468.51L1510.94 724.371H1534.58L1577.01 840.482H1554.98ZM1529.07 762.265C1528.64 760.753 1527.99 758.702 1527.13 756.111C1526.27 753.52 1525.4 750.875 1524.54 748.176C1523.78 745.369 1523.19 743.048 1522.76 741.213C1522.22 743.372 1521.52 745.855 1520.65 748.662C1519.9 751.469 1519.14 754.114 1518.38 756.597C1517.74 759.08 1517.2 760.969 1516.77 762.265L1506.56 792.062H1539.11L1529.07 762.265ZM1638.28 740.727C1632.99 740.727 1628.29 741.698 1624.19 743.642C1620.09 745.585 1616.58 748.392 1613.67 752.063C1610.86 755.733 1608.7 760.16 1607.19 765.342C1605.78 770.524 1605.08 776.354 1605.08 782.831C1605.08 791.576 1606.27 799.079 1608.65 805.341C1611.02 811.495 1614.64 816.245 1619.5 819.592C1624.46 822.939 1630.67 824.612 1638.12 824.612C1643.08 824.612 1647.84 824.126 1652.37 823.155C1657.01 822.075 1661.87 820.672 1666.94 818.944V836.596C1662.19 838.539 1657.39 839.943 1652.53 840.806C1647.78 841.67 1642.28 842.102 1636.01 842.102C1624.14 842.102 1614.31 839.673 1606.54 834.814C1598.77 829.848 1592.99 822.939 1589.21 814.086C1585.43 805.125 1583.54 794.653 1583.54 782.669C1583.54 773.925 1584.73 765.936 1587.11 758.702C1589.59 751.469 1593.1 745.207 1597.63 739.917C1602.28 734.627 1608 730.524 1614.8 727.61C1621.6 724.695 1629.43 723.237 1638.28 723.237C1644.11 723.237 1649.83 723.939 1655.45 725.342C1661.17 726.638 1666.51 728.473 1671.48 730.848L1664.35 747.852C1660.25 746.017 1655.99 744.397 1651.56 742.994C1647.24 741.482 1642.82 740.727 1638.28 740.727ZM1733.3 840.482H1712.57V742.346H1679.38V724.857H1766.5V742.346H1733.3V840.482Z" fill="#033529"/>
</svg>
