<svg width="4081" height="972" viewBox="0 0 4081 972" fill="none" xmlns="http://www.w3.org/2000/svg">
<rect width="971.646" height="971.646" fill="#033529"/>
<path d="M809.712 602.558C787.04 619.562 759.51 628.468 732.79 636.565C702.021 646.282 670.442 653.569 638.864 660.047C622.67 663.286 605.666 667.334 589.472 671.383C576.517 674.622 564.371 677.86 551.416 682.719C540.08 686.767 529.554 692.435 521.457 700.532C510.93 711.058 500.404 727.252 500.404 749.924V847.089H586.233V799.316C586.233 791.219 587.852 782.312 592.711 775.835C598.379 767.738 607.285 763.689 616.192 760.45C626.718 757.212 636.435 754.782 646.961 752.353C653.439 750.734 659.916 749.115 666.394 747.495C682.588 742.637 698.782 736.969 714.976 731.301C753.032 718.346 788.659 692.435 811.331 657.618C828.335 632.517 838.861 602.558 841.29 571.789C831.574 583.125 822.424 593.327 811.088 601.424L809.712 602.558Z" fill="white"/>
<path d="M416.999 402.409C412.141 396.741 407.282 391.073 404.044 384.596C400.805 377.308 399.995 369.211 399.995 361.114V227.513C399.995 220.226 393.517 213.748 386.23 213.748C378.943 213.748 372.465 219.416 372.465 227.513V478.522C372.465 478.522 370.036 502.003 391.898 518.197C402.424 525.484 413.76 531.152 425.096 536.82C439.671 543.298 455.865 549.776 471.249 554.634V489.048C471.249 480.951 471.249 472.854 468.82 465.566C465.581 455.85 459.104 447.753 452.626 440.465C446.148 433.178 438.861 425.891 432.383 418.603L416.999 402.409Z" fill="white"/>
<path d="M516.598 407.28C522.266 399.992 528.744 392.705 531.173 382.988C534.412 374.082 533.602 364.365 531.173 355.459C527.124 340.884 519.837 327.119 512.55 313.354C510.121 307.686 507.691 302.828 505.262 297.969C502.833 293.921 502.023 290.682 499.594 285.824V143.316C499.594 136.028 493.926 129.551 485.829 129.551C477.732 129.551 472.064 135.219 472.064 143.316V285.014C469.635 289.872 468.016 293.111 466.396 297.16C463.967 302.018 461.538 306.066 459.109 310.925C451.822 325.499 444.534 339.264 440.486 354.649C438.057 363.556 438.057 373.272 440.486 382.179C443.725 391.086 449.393 399.183 455.061 406.47L485.991 439.668L516.598 407.28Z" fill="white"/>
<path d="M686.629 625.102C699.584 622.673 711.73 619.434 724.685 615.386C753.025 606.479 780.555 593.524 804.036 574.091C825.089 557.087 842.902 535.225 855.857 510.124C863.954 494.74 869.622 478.546 874.48 462.352C862.335 473.687 851.728 482.351 837.153 489.963L833.995 491.501C805.656 505.266 774.077 512.553 743.308 518.221C725.495 521.46 706.872 524.699 688.248 527.128C682.58 528.019 677.722 528.747 672.054 529.557C645.334 532.796 617.804 536.844 591.893 543.322C574.89 547.371 558.695 553.039 543.311 561.945C532.785 567.613 522.259 574.091 514.971 583.807C508.494 591.904 503.636 601.621 502.016 612.147C499.587 625.102 500.64 637.896 500.397 651.823C500.397 663.158 500.397 677.733 500.397 689.069C508.494 680.972 517.4 672.875 528.736 667.207C546.55 658.3 565.983 652.632 584.606 647.774C605.658 642.106 649.382 633.199 649.382 633.199L686.629 625.102Z" fill="white"/>
<path d="M322.262 633.199C322.262 633.199 365.986 642.106 387.039 647.774C405.662 652.632 425.095 658.3 442.908 667.207C454.244 672.875 463.151 680.972 471.248 689.069C471.248 677.733 471.248 663.158 471.248 651.823C471.005 637.896 472.058 625.102 469.628 612.147C468.009 601.621 463.151 591.904 456.673 583.807C449.386 574.091 438.86 567.613 428.333 561.945C412.949 553.039 396.755 547.371 379.751 543.322C353.841 536.844 326.311 532.796 299.59 529.557C293.922 528.747 289.064 528.019 283.396 527.128C264.773 524.699 246.15 521.46 228.336 518.221C197.568 512.553 165.989 505.266 137.649 491.501L134.491 489.963C119.917 482.351 109.31 473.687 97.1641 462.352C102.022 478.546 107.69 494.74 115.787 510.124C128.743 535.225 146.556 557.087 167.608 574.091C191.09 593.524 218.62 606.479 246.96 615.386C259.915 619.434 272.06 622.673 285.016 625.102L322.262 633.199Z" fill="white"/>
<path d="M539.27 418.603C532.792 425.891 525.505 433.178 519.028 440.465C512.55 447.753 506.072 455.85 502.833 465.566C500.404 472.854 500.404 480.951 500.404 489.048V554.634C515.789 549.776 531.983 543.298 546.557 536.82C557.893 531.152 569.229 525.484 579.755 518.197C601.617 502.003 599.188 478.522 599.188 478.522V404.029V227.513C599.188 219.416 592.711 213.748 585.423 213.748C578.136 213.748 571.658 220.226 571.658 227.513V361.114C571.658 369.211 570.849 377.308 567.61 384.596C564.371 391.073 559.513 396.741 554.655 402.409L539.27 418.603Z" fill="white"/>
<path d="M160.561 601.424C149.226 593.327 140.076 583.125 130.359 571.789C132.788 602.558 143.315 632.517 160.318 657.618C182.99 692.435 218.617 718.346 256.673 731.301C272.867 736.969 289.062 742.637 305.256 747.495C311.733 749.115 318.211 750.734 324.689 752.353C335.215 754.782 344.931 757.212 355.457 760.45C364.364 763.689 373.271 767.738 378.939 775.835C383.797 782.312 385.416 791.219 385.416 799.316V820.369C385.416 830.085 385.416 838.182 385.416 847.089H430.76C443.715 847.089 458.29 847.089 471.245 847.089V763.689C471.245 756.402 471.245 758.021 471.245 749.924C471.245 727.252 460.719 711.058 450.193 700.532C442.096 692.435 431.57 686.767 420.234 682.719C407.279 677.86 395.133 674.622 382.178 671.383C365.984 667.334 348.98 663.286 332.786 660.047C301.207 653.569 269.629 646.282 238.86 636.565C212.14 628.468 184.61 619.562 161.938 602.558L160.561 601.424Z" fill="white"/>
<rect width="1619.41" height="971.646" transform="translate(1036.42)" fill="#033529"/>
<path d="M2345.35 513.826C2373.77 513.826 2397.19 517.303 2415.63 524.255C2434.07 531.208 2447.83 541.788 2456.9 555.996C2465.97 569.901 2470.5 587.585 2470.5 609.048C2470.5 624.767 2467.48 638.218 2461.43 649.403C2455.69 660.588 2448.13 669.959 2438.76 677.516C2429.39 684.771 2419.26 690.666 2408.38 695.2L2501.33 837.579H2436.04L2358.5 709.71H2311.34V837.579H2253.3V513.826H2345.35ZM2341.72 562.344H2311.34V662.099H2343.54C2359.56 662.099 2372.56 660.135 2382.53 656.205C2392.51 652.275 2399.76 646.531 2404.3 638.974C2409.14 631.417 2411.55 622.046 2411.55 610.861C2411.55 599.072 2408.98 589.701 2403.85 582.748C2398.71 575.493 2391 570.354 2380.72 567.332C2370.74 564.006 2357.75 562.344 2341.72 562.344Z" fill="white"/>
<path d="M2158.68 838.812L2129.2 753.113H2007.23L1978.21 838.812H1916.54L2035.34 513.699H2101.54L2220.34 838.812H2158.68ZM2086.13 619.803C2084.92 615.571 2083.1 609.827 2080.68 602.572C2078.27 595.317 2075.85 587.911 2073.43 580.354C2071.31 572.495 2069.65 565.995 2068.44 560.856C2066.93 566.902 2064.97 573.855 2062.55 581.714C2060.43 589.574 2058.31 596.98 2056.2 603.933C2054.39 610.885 2052.87 616.175 2051.66 619.803L2023.1 703.235H2114.24L2086.13 619.803Z" fill="white"/>
<path d="M1882.53 837.452H1746.5V804.351L1785.5 789.841V561.763L1746.5 546.8V513.699H1882.53V546.8L1843.54 561.763V789.841L1882.53 804.351V837.452Z" fill="white"/>
<path d="M1585.92 659.812H1708.35V824.409C1691.12 830.152 1673.43 834.535 1655.29 837.558C1637.16 840.581 1616.6 842.093 1593.63 842.093C1560.98 842.093 1533.32 835.593 1510.65 822.595C1487.98 809.597 1470.75 790.703 1458.96 765.916C1447.17 741.128 1441.27 710.899 1441.27 675.229C1441.27 641.372 1447.92 612.05 1461.22 587.262C1474.53 562.475 1493.57 543.279 1518.36 529.676C1543.45 516.073 1573.98 509.271 1609.95 509.271C1627.48 509.271 1644.41 511.085 1660.74 514.713C1677.36 518.038 1692.48 522.723 1706.08 528.769L1686.13 576.38C1675.85 571.241 1663.91 567.009 1650.31 563.684C1637.01 560.056 1623.1 558.242 1608.59 558.242C1586.52 558.242 1567.48 563.079 1551.46 572.752C1535.44 582.426 1523.04 596.18 1514.28 614.015C1505.81 631.548 1501.58 652.255 1501.58 676.136C1501.58 699.11 1504.91 719.514 1511.56 737.349C1518.21 754.882 1528.79 768.636 1543.3 778.612C1557.81 788.285 1576.7 793.122 1599.98 793.122C1607.84 793.122 1614.64 792.819 1620.38 792.215C1626.43 791.61 1631.87 790.855 1636.7 789.948C1641.84 789.041 1646.68 788.134 1651.21 787.227V709.236H1585.92V659.812Z" fill="white"/>
<path d="M1319.24 558.242C1304.42 558.242 1291.27 560.963 1279.79 566.404C1268.3 571.846 1258.48 579.705 1250.31 589.983C1242.45 600.261 1236.41 612.655 1232.18 627.165C1228.25 641.674 1226.28 657.998 1226.28 676.136C1226.28 700.621 1229.61 721.63 1236.26 739.163C1242.91 756.394 1253.03 769.694 1266.64 779.065C1280.54 788.436 1297.92 793.122 1318.78 793.122C1332.69 793.122 1345.99 791.761 1358.68 789.041C1371.68 786.018 1385.29 782.088 1399.49 777.251V826.676C1386.19 832.117 1372.74 836.047 1359.14 838.465C1345.84 840.884 1330.42 842.093 1312.89 842.093C1279.64 842.093 1252.13 835.291 1230.36 821.688C1208.6 807.783 1192.42 788.436 1181.84 763.648C1171.26 738.558 1165.97 709.236 1165.97 675.682C1165.97 651.197 1169.3 628.827 1175.95 608.574C1182.9 588.32 1192.73 570.787 1205.42 555.975C1218.42 541.163 1234.44 529.676 1253.49 521.514C1272.53 513.352 1294.45 509.271 1319.24 509.271C1335.56 509.271 1351.58 511.236 1367.3 515.166C1383.32 518.794 1398.28 523.933 1412.19 530.583L1392.24 578.194C1380.75 573.055 1368.81 568.52 1356.42 564.591C1344.33 560.358 1331.93 558.242 1319.24 558.242Z" fill="white"/>
<rect width="1360.3" height="971.646" transform="translate(2720.61)" fill="#D685FF"/>
<path d="M2913.97 357.071C2909.76 357.071 2905.98 357.934 2902.63 359.662C2899.39 361.281 2896.64 363.71 2894.37 366.949C2892.1 370.188 2890.38 374.075 2889.19 378.609C2888 383.143 2887.41 388.271 2887.41 393.993C2887.41 401.767 2888.38 408.352 2890.32 413.75C2892.27 419.148 2895.24 423.251 2899.23 426.058C2903.33 428.865 2908.51 430.268 2914.78 430.268C2919.63 430.268 2924.44 429.674 2929.19 428.487C2933.94 427.191 2938.96 425.572 2944.25 423.629V446.948C2939.18 449.107 2934.05 450.673 2928.87 451.644C2923.68 452.616 2918.07 453.102 2912.02 453.102C2899.82 453.102 2889.78 450.673 2881.9 445.814C2874.13 440.848 2868.35 433.939 2864.57 425.086C2860.9 416.125 2859.07 405.707 2859.07 393.831C2859.07 385.087 2860.26 377.098 2862.63 369.864C2865.01 362.523 2868.52 356.207 2873.16 350.917C2877.91 345.627 2883.68 341.524 2890.49 338.61C2897.29 335.695 2905.17 334.237 2914.13 334.237C2919.74 334.237 2925.52 334.939 2931.46 336.342C2937.5 337.746 2943.28 339.743 2948.78 342.334L2940.2 364.358C2935.88 362.307 2931.56 360.58 2927.25 359.176C2922.93 357.773 2918.5 357.071 2913.97 357.071ZM3009.68 385.249H3057.45V446.3C3051.41 448.352 3044.82 450.025 3037.7 451.32C3030.68 452.508 3023.01 453.102 3014.7 453.102C3003.37 453.102 2993.6 450.889 2985.39 446.462C2977.19 442.036 2970.87 435.396 2966.44 426.543C2962.12 417.691 2959.97 406.679 2959.97 393.508C2959.97 381.416 2962.29 370.944 2966.93 362.091C2971.57 353.238 2978.37 346.383 2987.33 341.524C2996.4 336.666 3007.47 334.237 3020.53 334.237C3027.12 334.237 3033.49 334.885 3039.64 336.18C3045.9 337.476 3051.41 339.203 3056.16 341.363L3047.25 363.225C3043.47 361.281 3039.32 359.77 3034.78 358.69C3030.25 357.611 3025.5 357.071 3020.53 357.071C3013.51 357.071 3007.58 358.69 3002.72 361.929C2997.97 365.06 2994.41 369.432 2992.03 375.046C2989.65 380.552 2988.47 386.868 2988.47 393.993C2988.47 401.443 2989.49 407.866 2991.54 413.264C2993.6 418.662 2996.67 422.873 3000.77 425.896C3004.99 428.811 3010.33 430.268 3016.81 430.268C3018.64 430.268 3020.42 430.214 3022.15 430.106C3023.88 429.89 3025.5 429.674 3027.01 429.458C3028.52 429.243 3029.87 429.027 3031.06 428.811V407.434H3009.68V385.249ZM3131.05 451.482H3074.85V435.774L3089.1 429.782V357.557L3074.85 351.565V335.857H3131.05V351.565L3116.8 357.557V429.782L3131.05 435.774V451.482ZM3220.78 451.482L3213.65 426.705H3173.65L3166.53 451.482H3136.41L3175.76 335.371H3211.06L3250.9 451.482H3220.78ZM3200.7 380.552C3200.16 378.609 3199.4 376.018 3198.43 372.779C3197.57 369.432 3196.65 366.032 3195.68 362.577C3194.81 359.122 3194.11 356.207 3193.57 353.832C3193.14 356.207 3192.44 359.176 3191.47 362.739C3190.6 366.193 3189.74 369.594 3188.87 372.941C3188.01 376.18 3187.31 378.717 3186.77 380.552L3179.97 403.71H3207.5L3200.7 380.552ZM3300.13 335.857C3310.61 335.857 3319.24 337.152 3326.04 339.743C3332.95 342.226 3338.14 346.059 3341.59 351.241C3345.04 356.315 3346.77 362.685 3346.77 370.35C3346.77 375.316 3345.85 379.743 3344.02 383.629C3342.18 387.516 3339.7 390.916 3336.57 393.831C3333.55 396.746 3330.04 399.175 3326.04 401.119L3359.89 451.482H3328.96L3302.89 408.082H3292.04V451.482H3264.51V335.857H3300.13ZM3299 357.557H3292.04V386.544H3299C3303.43 386.544 3307.1 386.058 3310.01 385.087C3312.93 384.007 3315.09 382.334 3316.49 380.066C3318 377.691 3318.76 374.776 3318.76 371.322C3318.76 368.191 3318.05 365.654 3316.65 363.71C3315.25 361.659 3313.09 360.148 3310.17 359.176C3307.26 358.096 3303.53 357.557 3299 357.557ZM2932.43 613.904C2932.43 620.705 2930.75 626.589 2927.41 631.555C2924.06 636.522 2919.2 640.354 2912.83 643.053C2906.57 645.752 2899.07 647.102 2890.32 647.102C2886.11 647.102 2882.06 646.832 2878.18 646.292C2874.4 645.86 2870.78 645.159 2867.33 644.187C2863.98 643.215 2860.85 642.028 2857.94 640.624V621.191C2862.79 623.35 2868.14 625.348 2873.97 627.183C2879.8 628.91 2885.74 629.774 2891.78 629.774C2896.42 629.774 2900.2 629.18 2903.12 627.993C2906.14 626.697 2908.35 624.97 2909.76 622.811C2911.16 620.544 2911.86 617.952 2911.86 615.038C2911.86 611.799 2910.94 609.046 2909.11 606.779C2907.27 604.511 2904.57 602.406 2901.01 600.463C2897.45 598.52 2893.02 596.468 2887.73 594.309C2884.17 592.798 2880.66 591.124 2877.21 589.289C2873.86 587.346 2870.84 585.024 2868.14 582.325C2865.44 579.626 2863.28 576.442 2861.66 572.771C2860.04 569.1 2859.23 564.782 2859.23 559.816C2859.23 553.23 2860.8 547.562 2863.93 542.812C2867.17 538.062 2871.65 534.445 2877.37 531.962C2883.2 529.479 2889.95 528.237 2897.61 528.237C2903.76 528.237 2909.54 528.885 2914.94 530.18C2920.34 531.476 2925.68 533.311 2930.97 535.686L2924.33 552.366C2919.58 550.315 2914.99 548.696 2910.57 547.508C2906.14 546.321 2901.61 545.727 2896.96 545.727C2893.29 545.727 2890.16 546.321 2887.57 547.508C2884.98 548.588 2883.04 550.153 2881.74 552.204C2880.45 554.256 2879.8 556.631 2879.8 559.33C2879.8 562.461 2880.61 565.106 2882.23 567.265C2883.85 569.424 2886.33 571.475 2889.68 573.419C2893.13 575.254 2897.56 577.359 2902.95 579.734C2909.22 582.433 2914.51 585.24 2918.83 588.155C2923.14 591.07 2926.49 594.579 2928.87 598.681C2931.24 602.784 2932.43 607.858 2932.43 613.904ZM3003.49 545.727C2998.2 545.727 2993.5 546.698 2989.4 548.642C2985.3 550.585 2981.79 553.392 2978.87 557.063C2976.07 560.733 2973.91 565.16 2972.4 570.342C2970.99 575.524 2970.29 581.354 2970.29 587.831C2970.29 596.576 2971.48 604.079 2973.85 610.341C2976.23 616.495 2979.85 621.245 2984.7 624.592C2989.67 627.939 2995.88 629.612 3003.33 629.612C3008.29 629.612 3013.04 629.126 3017.58 628.155C3022.22 627.075 3027.08 625.672 3032.15 623.944V641.596C3027.4 643.539 3022.6 644.943 3017.74 645.806C3012.99 646.67 3007.48 647.102 3001.22 647.102C2989.35 647.102 2979.52 644.673 2971.75 639.814C2963.98 634.848 2958.2 627.939 2954.42 619.086C2950.64 610.125 2948.75 599.653 2948.75 587.669C2948.75 578.925 2949.94 570.936 2952.32 563.702C2954.8 556.469 2958.31 550.207 2962.84 544.917C2967.48 539.627 2973.21 535.524 2980.01 532.61C2986.81 529.695 2994.64 528.237 3003.49 528.237C3009.32 528.237 3015.04 528.939 3020.65 530.342C3026.38 531.638 3031.72 533.473 3036.69 535.848L3029.56 552.852C3025.46 551.017 3021.19 549.397 3016.77 547.994C3012.45 546.482 3008.02 545.727 3003.49 545.727ZM3128.47 645.482L3117.94 614.876H3074.38L3064.02 645.482H3041.99L3084.42 529.371H3108.06L3150.49 645.482H3128.47ZM3102.56 567.265C3102.13 565.753 3101.48 563.702 3100.62 561.111C3099.75 558.52 3098.89 555.875 3098.02 553.176C3097.27 550.369 3096.67 548.048 3096.24 546.213C3095.7 548.372 3095 550.855 3094.14 553.662C3093.38 556.469 3092.63 559.114 3091.87 561.597C3091.22 564.08 3090.68 565.969 3090.25 567.265L3080.05 597.062H3112.6L3102.56 567.265ZM3165.7 645.482V529.857H3186.43V627.993H3234.69V645.482H3165.7ZM3293.92 645.482H3245.34V633.661L3259.27 628.479V547.022L3245.34 541.678V529.857H3293.92V541.678L3280 547.022V628.479L3293.92 633.661V645.482ZM3412.97 645.482H3387.22L3332.49 554.795H3331.84C3331.95 557.171 3332.05 559.708 3332.16 562.407C3332.38 564.998 3332.54 567.697 3332.65 570.504C3332.76 573.203 3332.86 575.956 3332.97 578.763C3333.08 581.57 3333.19 584.377 3333.3 587.184V645.482H3314.67V529.857H3340.26L3394.83 619.896H3395.32C3395.21 617.737 3395.1 615.415 3395 612.932C3394.89 610.341 3394.78 607.696 3394.67 604.997C3394.67 602.298 3394.62 599.545 3394.51 596.738C3394.4 593.931 3394.29 591.232 3394.19 588.641V529.857H3412.97V645.482ZM3489.24 582.002H3532.96V640.786C3526.81 642.837 3520.49 644.403 3514.02 645.482C3507.54 646.562 3500.2 647.102 3491.99 647.102C3480.33 647.102 3470.45 644.781 3462.36 640.138C3454.26 635.496 3448.11 628.749 3443.9 619.896C3439.69 611.043 3437.58 600.247 3437.58 587.508C3437.58 575.416 3439.96 564.944 3444.71 556.091C3449.46 547.238 3456.26 540.383 3465.11 535.524C3474.07 530.666 3484.98 528.237 3497.82 528.237C3504.08 528.237 3510.13 528.885 3515.96 530.18C3521.9 531.368 3527.3 533.041 3532.15 535.201L3525.03 552.204C3521.36 550.369 3517.09 548.858 3512.24 547.67C3507.49 546.374 3502.52 545.727 3497.34 545.727C3489.46 545.727 3482.65 547.454 3476.93 550.909C3471.21 554.364 3466.78 559.276 3463.65 565.645C3460.63 571.907 3459.12 579.303 3459.12 587.831C3459.12 596.036 3460.31 603.324 3462.68 609.693C3465.06 615.955 3468.84 620.867 3474.02 624.43C3479.2 627.885 3485.95 629.612 3494.26 629.612C3497.07 629.612 3499.5 629.504 3501.55 629.288C3503.71 629.072 3505.65 628.802 3507.38 628.479C3509.21 628.155 3510.94 627.831 3512.56 627.507V599.653H3489.24V582.002ZM3623.06 645.482H3602.66V529.857H3668.24V547.184H3623.06V581.192H3665.16V598.52H3623.06V645.482ZM3793.11 587.508C3793.11 596.468 3791.98 604.619 3789.71 611.961C3787.55 619.194 3784.21 625.456 3779.67 630.746C3775.24 636.036 3769.58 640.084 3762.67 642.891C3755.87 645.698 3747.88 647.102 3738.7 647.102C3729.42 647.102 3721.32 645.698 3714.41 642.891C3707.61 639.976 3701.99 635.928 3697.57 630.746C3693.14 625.456 3689.79 619.14 3687.53 611.799C3685.37 604.457 3684.29 596.306 3684.29 587.346C3684.29 575.362 3686.23 564.944 3690.12 556.091C3694.11 547.238 3700.1 540.383 3708.09 535.524C3716.19 530.558 3726.45 528.075 3738.86 528.075C3751.06 528.075 3761.16 530.558 3769.14 535.524C3777.13 540.383 3783.13 547.292 3787.12 556.253C3791.11 565.106 3793.11 575.524 3793.11 587.508ZM3706.15 587.508C3706.15 596.252 3707.28 603.756 3709.55 610.017C3711.93 616.279 3715.49 621.083 3720.24 624.43C3725.1 627.777 3731.25 629.45 3738.7 629.45C3746.36 629.45 3752.57 627.777 3757.32 624.43C3762.07 621.083 3765.58 616.279 3767.85 610.017C3770.12 603.756 3771.25 596.252 3771.25 587.508C3771.25 574.444 3768.71 564.188 3763.64 556.739C3758.56 549.289 3750.31 545.565 3738.86 545.565C3731.3 545.565 3725.1 547.238 3720.24 550.585C3715.49 553.932 3711.93 558.736 3709.55 564.998C3707.28 571.259 3706.15 578.763 3706.15 587.508ZM3850.61 529.857C3860.76 529.857 3869.12 531.098 3875.71 533.581C3882.29 536.064 3887.21 539.843 3890.44 544.917C3893.68 549.883 3895.3 556.199 3895.3 563.864C3895.3 569.478 3894.22 574.282 3892.06 578.277C3890.01 582.271 3887.31 585.618 3883.97 588.317C3880.62 590.908 3877 593.014 3873.12 594.633L3906.32 645.482H3883L3855.3 599.815H3838.46V645.482H3817.73V529.857H3850.61ZM3849.31 547.184H3838.46V582.811H3849.96C3855.68 582.811 3860.32 582.109 3863.89 580.706C3867.45 579.303 3870.04 577.251 3871.66 574.552C3873.39 571.853 3874.25 568.506 3874.25 564.512C3874.25 560.301 3873.33 556.955 3871.5 554.472C3869.66 551.88 3866.91 550.045 3863.24 548.966C3859.68 547.778 3855.03 547.184 3849.31 547.184ZM2904.41 840.482H2855.83V828.661L2869.76 823.479V742.022L2855.83 736.678V724.857H2904.41V736.678L2890.49 742.022V823.479L2904.41 828.661V840.482ZM2974.88 840.482L2943.14 745.747H2942.49C2942.6 747.906 2942.76 750.983 2942.97 754.978C2943.19 758.864 2943.35 763.129 2943.46 767.771C2943.68 772.305 2943.78 776.57 2943.78 780.564V840.482H2925.16V724.857H2953.99L2984.43 815.705H2985.08L3016.82 724.857H3045.64V840.482H3025.89V779.593C3025.89 775.922 3025.94 771.927 3026.05 767.609C3026.26 763.183 3026.43 759.026 3026.53 755.139C3026.75 751.145 3026.91 748.068 3027.02 745.909H3026.37L2993.34 840.482H2974.88ZM3110.05 724.857C3125.06 724.857 3135.96 727.987 3142.76 734.249C3149.67 740.511 3153.13 749.148 3153.13 760.16C3153.13 765.126 3152.37 769.876 3150.86 774.41C3149.35 778.837 3146.81 782.831 3143.25 786.394C3139.68 789.957 3134.99 792.764 3129.16 794.815C3123.44 796.866 3116.31 797.892 3107.78 797.892H3096.28V840.482H3075.56V724.857H3110.05ZM3108.75 742.022H3096.28V780.726H3105.68C3111.29 780.726 3116.04 780.078 3119.93 778.783C3123.92 777.379 3126.95 775.22 3129 772.305C3131.05 769.39 3132.07 765.612 3132.07 760.969C3132.07 754.6 3130.18 749.849 3126.41 746.719C3122.63 743.588 3116.74 742.022 3108.75 742.022ZM3239.17 840.482L3228.64 809.876H3185.08L3174.72 840.482H3152.69L3195.12 724.371H3218.77L3261.2 840.482H3239.17ZM3213.26 762.265C3212.83 760.753 3212.18 758.702 3211.32 756.111C3210.45 753.52 3209.59 750.875 3208.73 748.176C3207.97 745.369 3207.38 743.048 3206.94 741.213C3206.4 743.372 3205.7 745.855 3204.84 748.662C3204.08 751.469 3203.33 754.114 3202.57 756.597C3201.92 759.08 3201.38 760.969 3200.95 762.265L3190.75 792.062H3223.3L3213.26 762.265ZM3322.47 740.727C3317.18 740.727 3312.48 741.698 3308.38 743.642C3304.28 745.585 3300.77 748.392 3297.85 752.063C3295.05 755.733 3292.89 760.16 3291.38 765.342C3289.97 770.524 3289.27 776.354 3289.27 782.831C3289.27 791.576 3290.46 799.079 3292.83 805.341C3295.21 811.495 3298.82 816.245 3303.68 819.592C3308.65 822.939 3314.86 824.612 3322.31 824.612C3327.27 824.612 3332.02 824.126 3336.56 823.155C3341.2 822.075 3346.06 820.672 3351.13 818.944V836.596C3346.38 838.539 3341.58 839.943 3336.72 840.806C3331.97 841.67 3326.46 842.102 3320.2 842.102C3308.33 842.102 3298.5 839.673 3290.73 834.814C3282.95 829.848 3277.18 822.939 3273.4 814.086C3269.62 805.125 3267.73 794.653 3267.73 782.669C3267.73 773.925 3268.92 765.936 3271.29 758.702C3273.78 751.469 3277.29 745.207 3281.82 739.917C3286.46 734.627 3292.19 730.524 3298.99 727.61C3305.79 724.695 3313.62 723.237 3322.47 723.237C3328.3 723.237 3334.02 723.939 3339.63 725.342C3345.36 726.638 3350.7 728.473 3355.67 730.848L3348.54 747.852C3344.44 746.017 3340.17 744.397 3335.75 742.994C3331.43 741.482 3327 740.727 3322.47 740.727ZM3417.49 840.482H3396.76V742.346H3363.56V724.857H3450.69V742.346H3417.49V840.482Z" fill="#033529"/>
</svg>
